<svg xmlns="http://www.w3.org/2000/svg" version="1.1" xmlns:xlink="http://www.w3.org/1999/xlink" xmlns:svgjs="http://svgjs.com/svgjs" width="1440" height="560" preserveAspectRatio="none" viewBox="0 0 1440 560">
    <g mask="url(&quot;#SvgjsMask1344&quot;)" fill="none">
        <path d="M759.02 157.08a5.6 5.6 0 1 0 5.44 9.79 5.6 5.6 0 1 0-5.44-9.79zM766.79 171.06a5.6 5.6 0 1 0 5.44 9.79 5.6 5.6 0 1 0-5.44-9.79zM774.57 185.05a5.6 5.6 0 1 0 5.44 9.79 5.6 5.6 0 1 0-5.44-9.79zM782.34 199.04a5.6 5.6 0 1 0 5.44 9.79 5.6 5.6 0 1 0-5.44-9.79zM729.49 136.88a5.6 5.6 0 1 0 5.44 9.79 5.6 5.6 0 1 0-5.44-9.79zM737.26 150.86a5.6 5.6 0 1 0 5.44 9.79 5.6 5.6 0 1 0-5.44-9.79zM745.04 164.85a5.6 5.6 0 1 0 5.44 9.79 5.6 5.6 0 1 0-5.44-9.79zM752.81 178.84a5.6 5.6 0 1 0 5.44 9.79 5.6 5.6 0 1 0-5.44-9.79z" fill="#037b0b"></path>
        <rect width="60" height="60" clip-path="url(&quot;#SvgjsClipPath1345&quot;)" x="971.03" y="472.75" fill="url(#SvgjsPattern1346)" transform="rotate(133.71, 1001.03, 502.75)"></rect>
        <path d="M506.02 368.32L516.42 360.86 525.99 369.37 536.4 361.91 545.96 370.43 556.37 362.96 565.93 371.48" stroke="#037b0b" stroke-width="1.27" stroke-dasharray="3, 3"></path>
        <rect width="192.64" height="192.64" clip-path="url(&quot;#SvgjsClipPath1347&quot;)" x="501.44" y="358.89" fill="url(#SvgjsPattern1348)" transform="rotate(14.13, 597.76, 455.21)"></rect>
        <rect width="370.12" height="370.12" clip-path="url(&quot;#SvgjsClipPath1349&quot;)" x="505.06" y="312.25" fill="url(#SvgjsPattern1350)" transform="rotate(55.6, 690.12, 497.31)"></rect>
        <path d="M1384.31 37.89 L1310.17 157.97L1437.3635345689381 188.05353456893812z" fill="#e73635"></path>
        <rect width="119.76" height="119.76" clip-path="url(&quot;#SvgjsClipPath1351&quot;)" x="181.19" y="276.76" fill="url(#SvgjsPattern1352)" transform="rotate(46.9, 241.07, 336.64)"></rect>
        <path d="M32 285.17L43.5 279.52 51.53 289.49 63.02 283.84 71.06 293.81 82.55 288.16 90.59 298.14M30.27 292.98L41.77 287.33 49.8 297.3 61.29 291.65 69.33 301.63 80.82 295.98 88.86 305.95" stroke="#037b0b" stroke-width="1.11" stroke-dasharray="4, 4"></path>
        <rect width="80.60000000000001" height="80.60000000000001" clip-path="url(&quot;#SvgjsClipPath1353&quot;)" x="856.14" y="464.47" fill="url(#SvgjsPattern1354)" transform="rotate(289.88, 896.44, 504.77)"></rect>
        <rect width="264" height="264" clip-path="url(&quot;#SvgjsClipPath1355&quot;)" x="525.77" y="-22.04" fill="url(#SvgjsPattern1356)" transform="rotate(5.11, 657.77, 109.96)"></rect>
        <circle r="46.666666666666664" cx="1103.67" cy="270.7" stroke="#d3b714" stroke-width="2.05" stroke-dasharray="3, 2"></circle>
        <path d="M43.39 353.65a5.6 5.6 0 1 0 4.47 10.27 5.6 5.6 0 1 0-4.47-10.27zM49.77 368.33a5.6 5.6 0 1 0 4.46 10.27 5.6 5.6 0 1 0-4.46-10.27zM56.15 383a5.6 5.6 0 1 0 4.46 10.27 5.6 5.6 0 1 0-4.46-10.27zM62.53 397.67a5.6 5.6 0 1 0 4.46 10.28 5.6 5.6 0 1 0-4.46-10.28z" stroke="#037b0b" stroke-width="1" stroke-dasharray="3, 2"></path>
    </g>
    <defs>
        <mask id="SvgjsMask1344">
            <rect width="1440" height="560" fill="#ffffff"></rect>
        </mask>
        <pattern x="0" y="0" width="6" height="6" patternUnits="userSpaceOnUse" id="SvgjsPattern1346">
            <path d="M3 1L3 5M1 3L5 3" stroke="#d3b714" fill="none" stroke-width="1"></path>
        </pattern>
        <clipPath id="SvgjsClipPath1345">
            <circle r="15" cx="1001.03" cy="502.75"></circle>
        </clipPath>
        <pattern x="0" y="0" width="13.76" height="13.76" patternUnits="userSpaceOnUse" id="SvgjsPattern1348">
            <path d="M6.88 1L6.88 12.76M1 6.88L12.76 6.88" stroke="#d3b714" fill="none" stroke-width="5.39"></path>
        </pattern>
        <clipPath id="SvgjsClipPath1347">
            <circle r="48.16" cx="597.76" cy="455.21"></circle>
        </clipPath>
        <pattern x="0" y="0" width="9.74" height="9.74" patternUnits="userSpaceOnUse" id="SvgjsPattern1350">
            <path d="M0 9.74L4.87 0L9.74 9.74" stroke="#104476" fill="none"></path>
        </pattern>
        <clipPath id="SvgjsClipPath1349">
            <circle r="92.53" cx="690.12" cy="497.31"></circle>
        </clipPath>
        <pattern x="0" y="0" width="9.98" height="9.98" patternUnits="userSpaceOnUse" id="SvgjsPattern1352">
            <path d="M4.99 1L4.99 8.98M1 4.99L8.98 4.99" stroke="#e73635" fill="none" stroke-width="1"></path>
        </pattern>
        <clipPath id="SvgjsClipPath1351">
            <circle r="29.94" cx="241.07" cy="336.64"></circle>
        </clipPath>
        <pattern x="0" y="0" width="8.06" height="8.06" patternUnits="userSpaceOnUse" id="SvgjsPattern1354">
            <path d="M0 8.06L4.03 0L8.06 8.06" stroke="#104476" fill="none"></path>
        </pattern>
        <clipPath id="SvgjsClipPath1353">
            <circle r="20.150000000000002" cx="896.44" cy="504.77"></circle>
        </clipPath>
        <pattern x="0" y="0" width="6" height="6" patternUnits="userSpaceOnUse" id="SvgjsPattern1356">
            <path d="M3 1L3 5M1 3L5 3" stroke="#037b0b" fill="none" stroke-width="1.08"></path>
        </pattern>
        <clipPath id="SvgjsClipPath1355">
            <circle r="66" cx="657.77" cy="109.96"></circle>
        </clipPath>
    </defs>
</svg>